<svg id="Capa_1" data-name="Capa 1" xmlns="http://www.w3.org/2000/svg" xmlns:xlink="http://www.w3.org/1999/xlink" viewBox="0 0 750 750"><defs><style>.cls-1{fill:#fff;}.cls-2{fill:url(#Degradado_sin_nombre_6);}</style><linearGradient id="Degradado_sin_nombre_6" x1="178.08" y1="355.63" x2="591.39" y2="355.63" gradientUnits="userSpaceOnUse"><stop offset="0" stop-color="#04d8dc"/><stop offset="1" stop-color="#01f4a0"/></linearGradient></defs><g id="custom-colored-content"><path class="cls-2" d="M273.51,211.86l-39.58,39.59c-74.47,74.46-74.47,196,0,270.48s196,74.46,270.48,0L557.29,469C630,396.39,579,270.27,474.94,270.27a116.23,116.23,0,0,0-82.4,34l-52.88,52.88a41.73,41.73,0,0,0,59,59l37.44-37.44-20.46-20.47,105.2-17.51L503.29,445.94l-20.46-20.47-37.44,37.44c-66.84,66.84-183.95,20.7-183.95-76.26a107.43,107.43,0,0,1,31.43-76.26l51.85-51.85-.16-.15,53.77-53.77.08.08a41.68,41.68,0,1,0-58.94-58.94l-66,66.1Z"/></g></svg>