<svg id="Capa_1" data-name="Capa 1" xmlns="http://www.w3.org/2000/svg" xmlns:xlink="http://www.w3.org/1999/xlink" viewBox="0 0 764.86 571.51"><defs><style>.cls-1{fill:#fff;}.cls-2{fill:#19334f;}.cls-3{fill:url(#Degradado_sin_nombre_6);}</style><linearGradient id="Degradado_sin_nombre_6" x1="303.31" y1="201.4" x2="458.26" y2="201.4" gradientUnits="userSpaceOnUse"><stop offset="0" stop-color="#04d8dc"/><stop offset="1" stop-color="#01f4a0"/></linearGradient></defs><path class="cls-2" d="M197,371.85c0-20.52,15-36.59,34.06-36.59,15.57,0,27.39,8.9,31.84,23.35H248.53c-3.34-6.57-9.4-11.12-17.49-11.12-11.62,0-20.72,11.12-20.72,24.36s9.1,24.46,20.72,24.46a19.69,19.69,0,0,0,19.21-15.66H232.86V368.21h32c.81,24.67-13.84,40.23-33.86,40.23C211.94,408.44,197,392.37,197,371.85Z"/><path class="cls-2" d="M300.28,366.7c-8.5-1.52-14.16,3-14.16,10.41v30.12H272.78V377.11c0-14.76,10.21-25.07,27.5-22.95Z"/><path class="cls-2" d="M356.29,381.25c0,15.57-11.82,27.19-26.28,27.19s-26.18-11.62-26.18-27.19,11.73-27.39,26.18-27.39S356.29,365.69,356.29,381.25Zm-13.44.1c0-9-5.76-15.26-12.84-15.26s-12.83,6.27-12.83,15.26c0,8.8,5.76,14.86,12.83,14.86S342.85,390.15,342.85,381.35Z"/><path class="cls-2" d="M442.54,385.2c0,13.24-9.3,23.35-23.45,23.35a21.27,21.27,0,0,1-16.68-7.38,21.49,21.49,0,0,1-16.57,7.38c-14.46,0-23-9.61-23-23.35v-30h13.34V385.6c0,2.93,1,9.91,9.71,9.91,6,0,10.1-4.05,10.1-9.91V355.18h13.35V385.6c0,2.93,1,9.91,9.8,9.91,5.86,0,10.11-4.05,10.11-9.91V355.18h13.34Z"/><path class="cls-2" d="M460.93,401.37a25.83,25.83,0,0,1-7.07-18.3v-46H467.2v46.2c0,7.58,4.55,12.13,12,12.13s12.13-4.55,12.13-12.13v-46.2H504.7v46a26,26,0,0,1-43.77,18.3Z"/><path class="cls-2" d="M539.73,408.34a20.42,20.42,0,0,1-15.16-6.06v28.1H511.13V381.05c0-15,11-27.19,26.79-27.19s26.68,12.23,26.68,27.19S553.48,408.34,539.73,408.34Zm-1.81-41.94c-7.38,0-13.35,6.57-13.35,14.65,0,8.29,6,15,13.35,15s13.34-6.47,13.34-15S545.29,366.4,537.92,366.4Z"/><path class="cls-2" d="M585,353.77a8.35,8.35,0,1,1,8.35-8.36A8.36,8.36,0,0,1,585,353.77Zm0-15.14a6.8,6.8,0,1,0,6.69,6.78A6.74,6.74,0,0,0,585,338.63Zm4.22,11.19h-2l-1.66-3.21h-2.24v3.19h-1.73v-9.19H586a3,3,0,0,1,1.25,5.8ZM586,345a1.31,1.31,0,0,0,1.43-1.41c0-1-.56-1.4-1.43-1.4h-2.7V345Z"/><g id="custom-colored-content"><path class="cls-3" d="M339.09,147.5l-14.84,14.84a71.7,71.7,0,0,0,101.4,101.4l19.83-19.83c27.24-27.24,8.15-74.52-30.87-74.52a43.59,43.59,0,0,0-30.89,12.76L363.89,202A15.64,15.64,0,0,0,386,224.1l14-14-7.67-7.68,39.44-6.56-6.58,39.42-7.67-7.67-14,14c-25.06,25.05-69,7.75-69-28.59a40.3,40.3,0,0,1,11.78-28.6L365.79,165l-.06-.06,20.16-20.16,0,0a15.62,15.62,0,1,0-22.09-22.1L339.09,147.5Z"/></g><path class="cls-2" d="M298.35,434.05a7.6,7.6,0,0,0-4.1-1.75,14.69,14.69,0,0,0-1.51-.11l-1.08,0h-6.51V453h7.59a12.31,12.31,0,0,0,1.51-.12,7.52,7.52,0,0,0,4.1-1.74,8.9,8.9,0,0,0,2.52-3.65,14.35,14.35,0,0,0,0-9.73A8.94,8.94,0,0,0,298.35,434.05Zm-.29,11.87a6.51,6.51,0,0,1-1.45,2.64,4.53,4.53,0,0,1-2.58,1.38,9.72,9.72,0,0,1-1.2.12l-1.17,0h-3.42v-15h3.42c.32,0,.71,0,1.16,0a7,7,0,0,1,1.21.12,4.47,4.47,0,0,1,2.55,1.35,6.49,6.49,0,0,1,1.46,2.63,11.5,11.5,0,0,1,.48,3.4A11.79,11.79,0,0,1,298.06,445.92Zm21.75,7h3V432.17h-3Zm39.71-10.8h-7.24v2.43h4a8.4,8.4,0,0,1-1,3.26,4.91,4.91,0,0,1-2,2,6.08,6.08,0,0,1-3.05.66,6.59,6.59,0,0,1-3.69-1,6,6,0,0,1-2.21-2.78,10.7,10.7,0,0,1-.72-4.16,11.18,11.18,0,0,1,.75-4.18,6.06,6.06,0,0,1,2.2-2.8,6.32,6.32,0,0,1,3.67-1,5.63,5.63,0,0,1,3.55,1.13,6.16,6.16,0,0,1,2.05,3l3.06-.55a8.48,8.48,0,0,0-3-4.7,9.25,9.25,0,0,0-5.85-1.71,9.62,9.62,0,0,0-5,1.31,9,9,0,0,0-3.4,3.72,12.65,12.65,0,0,0-1.23,5.79,13.47,13.47,0,0,0,.72,4.56,10,10,0,0,0,2,3.41,8.64,8.64,0,0,0,3.06,2.12,9.94,9.94,0,0,0,3.86.73,9.73,9.73,0,0,0,5.14-1.29,8.43,8.43,0,0,0,3.23-3.56,11.56,11.56,0,0,0,1.11-5.15c0-.08,0-.26,0-.54S359.54,442.34,359.52,442.16ZM377.19,453h3V432.17h-3ZM397.25,435h6.91V453h3V435h6.91v-2.85H397.25Zm38.32-2.85L428.82,453H432l1.52-4.69H442l1.54,4.69h3.13l-6.75-20.79Zm-1.18,13.27,3.32-10.25,3.36,10.25ZM467,450.12V432.17h-3V453h12.43v-2.84Z"/></svg>