<?xml version="1.0" encoding="UTF-8" standalone="no"?>
<!-- Created with Inkscape (http://www.inkscape.org/) -->

<svg
   width="14.66158mm"
   height="37.888351mm"
   viewBox="0 0 14.66158 37.888351"
   version="1.1"
   id="svg565"
   inkscape:version="1.2.1 (9c6d41e410, 2022-07-14)"
   sodipodi:docname="t1.svg"
   xmlns:inkscape="http://www.inkscape.org/namespaces/inkscape"
   xmlns:sodipodi="http://sodipodi.sourceforge.net/DTD/sodipodi-0.dtd"
   xmlns="http://www.w3.org/2000/svg"
   xmlns:svg="http://www.w3.org/2000/svg">
  <sodipodi:namedview
     id="namedview567"
     pagecolor="#ffffff"
     bordercolor="#000000"
     borderopacity="0.25"
     inkscape:showpageshadow="2"
     inkscape:pageopacity="0.0"
     inkscape:pagecheckerboard="0"
     inkscape:deskcolor="#d1d1d1"
     inkscape:document-units="mm"
     showgrid="false"
     inkscape:zoom="4.1776837"
     inkscape:cx="42.248292"
     inkscape:cy="74.203799"
     inkscape:window-width="1920"
     inkscape:window-height="1009"
     inkscape:window-x="1912"
     inkscape:window-y="137"
     inkscape:window-maximized="1"
     inkscape:current-layer="layer1" />
  <defs
     id="defs562" />
  <g
     inkscape:label="Capa 1"
     inkscape:groupmode="layer"
     id="layer1"
     transform="translate(-115.91014,-127.58489)">
    <path
       d="m 115.93613,164.82254 0.0247,-0.65117 0.96968,-0.15478 c 0.53331,-0.0851 0.99946,-0.20168 1.03587,-0.259 0.0464,-0.073 0.0666,-0.0599 0.0675,0.0439 0.001,0.10771 0.0649,0.14502 0.23413,0.13664 0.18733,-0.009 0.19716,-0.0185 0.0503,-0.0472 -0.105,-0.0205 -0.20407,-0.12142 -0.23322,-0.23758 -0.0535,-0.21317 0.0582,-1.15515 0.20853,-1.75834 0.0929,-0.37279 0.1292,-0.61678 0.15164,-1.01954 0.007,-0.1308 0.0459,-0.21768 0.0857,-0.19306 0.0398,0.0246 0.0535,-0.0545 0.0303,-0.17582 -0.0232,-0.12132 0.0219,-0.5869 0.10021,-1.0346 0.15307,-0.8751 1.13318,-6.81019 1.81923,-11.01635 0.23166,-1.42028 0.44277,-2.88713 0.46915,-3.25967 0.0264,-0.37253 0.14323,-1.85843 0.25969,-3.302 0.11646,-1.44356 0.22084,-2.753 0.23196,-2.90985 l 0.0202,-0.28519 -1.22641,-0.44102 c -1.85904,-0.66853 -2.96881,-1.12629 -2.28474,-0.94241 0.17642,0.0474 0.18699,0.0414 0.0635,-0.036 -0.10214,-0.0641 -0.19419,-0.0661 -0.29633,-0.007 -0.0815,0.0475 -0.10471,0.0875 -0.0516,0.0889 0.0531,0.001 0.11399,0.1264 0.13527,0.27775 0.0213,0.15134 0.0676,0.34184 0.10299,0.42333 0.088,0.2027 -0.0808,0.19049 -0.29249,-0.0212 -0.0931,-0.0931 -0.16934,-0.13339 -0.16934,-0.0895 0,0.0439 0.0734,0.13129 0.16317,0.19415 0.22533,0.15782 0.41918,0.5902 0.2847,0.63502 -0.0763,0.0255 -0.0773,0.0844 -0.004,0.24562 0.0753,0.16524 0.0724,0.22713 -0.0131,0.27997 -0.0872,0.0539 -0.0887,0.10713 -0.008,0.2587 0.0797,0.14903 0.0797,0.20471 0,0.254 -0.0763,0.0472 -0.0785,0.10727 -0.009,0.23767 0.13076,0.24433 0.11647,0.355 -0.0458,0.355 -0.1202,0 -0.13221,0.0752 -0.0879,0.55033 0.0471,0.50452 0.0378,0.55034 -0.11157,0.55034 -0.1494,0 -0.15869,-0.0458 -0.11157,-0.55034 0.0444,-0.47508 0.0323,-0.55033 -0.0879,-0.55033 -0.1623,0 -0.17659,-0.11067 -0.0458,-0.355 0.0698,-0.13039 0.0676,-0.1905 -0.009,-0.23766 -0.0798,-0.0493 -0.0798,-0.10498 0,-0.254 0.0798,-0.14903 0.0798,-0.20471 0,-0.254 -0.11854,-0.0733 0.0281,-0.42334 0.17731,-0.42334 0.0477,0 0.0615,-0.0407 0.0308,-0.0904 -0.0307,-0.0497 -0.10919,-0.07 -0.17433,-0.045 -0.14235,0.0546 -0.15231,-0.0664 -0.025,-0.30423 0.0707,-0.13219 0.0672,-0.19072 -0.0145,-0.24121 -0.085,-0.0525 -0.0779,-0.11245 0.0336,-0.28259 0.16727,-0.25529 0.18037,-0.50054 0.0388,-0.72717 -0.0564,-0.0904 -0.085,-0.18042 -0.0635,-0.20009 0.0708,-0.0647 1.22592,-0.15946 1.1632,-0.0954 -0.0337,0.0344 0.0709,0.13341 0.23253,0.22002 0.30102,0.16133 0.52067,0.21764 0.29685,0.0761 -0.21866,-0.13829 -0.0618,-0.16034 0.63257,-0.089 0.37252,0.0383 0.94866,0.0921 1.2803,0.11955 l 0.60298,0.0499 0.0574,-0.4328 c 0.0316,-0.23804 0.0456,-0.44457 0.0312,-0.45896 -0.0298,-0.0298 -1.52593,0.2378 -2.35296,0.42076 -0.30919,0.0684 -0.58299,0.0897 -0.62486,0.0487 -0.0422,-0.0413 0.0681,-0.0979 0.254,-0.13036 0.90108,-0.15717 2.65979,-0.52187 2.69724,-0.55933 0.0234,-0.0234 0.0822,-0.38268 0.13063,-0.79837 0.0484,-0.41569 0.12624,-0.96535 0.1729,-1.22147 0.0466,-0.25612 0.12248,-0.71332 0.1685,-1.016 0.046,-0.30268 0.28293,-1.67428 0.52646,-3.048 0.40514,-2.28524 0.45708,-2.49767 0.61069,-2.49767 0.12534,0 0.18134,0.0751 0.22092,0.29634 0.24194,1.35216 0.58485,3.42568 0.58485,3.53644 0,0.11307 -0.0214,0.10829 -0.1243,-0.0278 -0.0684,-0.0904 -0.12431,-0.12625 -0.12431,-0.0797 0,0.13264 0.2168,0.38459 0.27815,0.32323 0.0303,-0.0303 0.0551,-0.0331 0.0551,-0.006 0,0.0269 0.13188,0.82386 0.29307,1.77094 0.16118,0.94708 0.31891,2.07257 0.35051,2.50109 l 0.0574,0.77913 1.70384,1.67621 c 0.93712,0.92191 1.77532,1.71581 1.86267,1.76422 0.14018,0.0777 0.14524,0.10977 0.0431,0.27336 -0.0904,0.14468 -0.0949,0.24059 -0.0207,0.43707 0.0709,0.18771 0.0704,0.26001 -0.002,0.28436 -0.0699,0.0236 -0.0663,0.0697 0.013,0.16589 0.0741,0.0898 0.0809,0.15116 0.0209,0.18824 -0.0601,0.0372 -0.0617,0.10604 -0.005,0.21237 0.0602,0.11251 0.0542,0.16836 -0.0209,0.19595 -0.0836,0.0307 -0.0835,0.0616 7.9e-4,0.15076 0.12628,0.13386 0.14131,0.27957 0.0212,0.20532 -0.10869,-0.0672 -0.10762,0.0106 0.003,0.21723 0.0704,0.1316 0.0598,0.16377 -0.0541,0.16377 -0.12037,0 -0.1342,0.0639 -0.0916,0.42333 0.0392,0.33102 0.0242,0.42333 -0.0689,0.42333 -0.0931,0 -0.10809,-0.0923 -0.0689,-0.42333 0.0428,-0.3615 0.0291,-0.42333 -0.0937,-0.42333 -0.0791,0 -0.11951,-0.0393 -0.0898,-0.0873 0.0918,-0.14858 0.11312,-0.67472 0.0273,-0.67472 -0.0447,0 -0.0542,-0.0438 -0.0211,-0.0973 0.089,-0.14403 0.11633,-0.66471 0.0349,-0.66471 -0.0387,0 -0.0293,-0.10868 0.0209,-0.24152 0.11039,-0.29245 0.0379,-0.51968 -0.16672,-0.52273 -0.0829,-0.001 -0.73674,-0.0901 -1.45287,-0.1975 l -1.30205,-0.19524 0.0528,0.85366 c 0.2507,4.05197 0.42718,5.38256 1.86506,14.06166 0.77147,4.65667 1.4234,8.58635 1.44873,8.73264 0.0435,0.25132 0.0751,0.27124 0.5731,0.36143 0.28988,0.0525 0.73661,0.12372 0.99272,0.15828 l 0.46567,0.0628 0.0247,0.65524 0.0247,0.65524 h -7.33079 -7.33079 l 0.0247,-0.65117 z m 3.07272,-0.78816 c 0.0288,-0.0466 0.012,-0.0847 -0.0373,-0.0847 -0.0493,0 -0.0897,0.0381 -0.0897,0.0847 0,0.0466 0.0168,0.0847 0.0373,0.0847 0.0205,0 0.0609,-0.0381 0.0897,-0.0847 z m 0.5715,-0.0561 c -0.0582,-0.0235 -0.15346,-0.0235 -0.21166,0 -0.0582,0.0235 -0.0106,0.0427 0.10583,0.0427 0.11642,0 0.16404,-0.0192 0.10583,-0.0427 z m 0.48684,-0.14228 c -0.11642,-0.0612 -0.26882,-0.0909 -0.33867,-0.0661 -0.0899,0.0319 -0.0651,0.0623 0.0847,0.104 0.35336,0.0984 0.47804,0.0798 0.254,-0.0379 z m -0.46567,-0.19046 c 0.1397,-0.0168 0.5588,-0.0903 0.93133,-0.16334 0.64722,-0.12683 1.35824,-0.24372 2.13784,-0.35147 0.1979,-0.0274 0.35983,-0.074 0.35983,-0.10373 0,-0.0297 -0.0952,-0.19418 -0.21167,-0.3655 -0.11641,-0.17132 -0.21166,-0.33206 -0.21166,-0.35719 0,-0.0251 -0.20339,-0.34148 -0.45196,-0.70299 -0.24858,-0.36151 -0.62456,-0.91157 -0.83552,-1.22235 l -0.38354,-0.56505 -0.16578,0.22638 c -0.0912,0.12452 -0.42431,0.64549 -0.74031,1.15772 -0.316,0.51224 -0.656,1.00994 -0.75555,1.10601 -0.0996,0.0961 -0.19287,0.22941 -0.20736,0.29633 -0.0583,0.26902 -0.45037,0.76183 -0.58759,0.73848 -0.0881,-0.015 -0.15084,0.0401 -0.16544,0.14518 -0.0227,0.16348 -0.0211,0.16367 0.0458,0.006 0.0446,-0.10523 0.0902,-0.12998 0.1277,-0.0693 0.0321,0.0519 -0.028,0.15829 -0.13357,0.23636 -0.18381,0.13594 -0.16691,0.13934 0.40075,0.0807 0.32597,-0.0337 0.70697,-0.075 0.84667,-0.0918 z m 0.91821,0.0713 c 0.0216,-0.0349 -0.0521,-0.069 -0.16377,-0.0757 -0.11164,-0.007 -0.18194,0.0219 -0.15621,0.0635 0.0568,0.092 0.26581,0.0999 0.31998,0.0122 z m 7.53622,-0.0423 c -0.0355,-0.0582 -0.411,-0.63923 -0.83442,-1.29116 -0.42343,-0.65194 -0.97331,-1.50006 -1.22196,-1.88471 l -0.45211,-0.69938 -1.04987,1.57826 c -0.57743,0.86803 -1.02693,1.60185 -0.9989,1.6307 0.0464,0.0478 4.11024,0.74164 4.46866,0.763 0.10166,0.006 0.13145,-0.0265 0.0886,-0.0967 z m -9.13176,-1.04888 c 0.0693,-0.0266 0.10839,-0.0769 0.0868,-0.11177 -0.0216,-0.0349 0.0752,-0.2438 0.21502,-0.46427 l 0.25422,-0.40085 -0.25879,-0.51789 c -0.14233,-0.28483 -0.30009,-0.5434 -0.35058,-0.57461 -0.0657,-0.0406 -0.0654,-0.0731 0.001,-0.11419 0.055,-0.034 0.22804,0.15615 0.42338,0.46509 l 0.3304,0.52255 0.29158,-0.43297 c 0.16037,-0.23813 0.30729,-0.42361 0.32649,-0.41217 0.0192,0.0114 0.0267,0.006 0.0167,-0.0115 -0.01,-0.0178 0.08,-0.19988 0.20003,-0.40469 l 0.21822,-0.37238 -0.36935,0.0617 c -0.20315,0.0339 -0.47362,0.0586 -0.60105,0.0548 -0.13271,-0.004 -0.20956,0.0289 -0.17989,0.0769 0.0321,0.052 -0.0205,0.0609 -0.13875,0.0233 -0.14277,-0.0453 -0.17379,-0.0334 -0.12372,0.0477 0.0472,0.0764 0.0264,0.0926 -0.071,0.0552 -0.15897,-0.061 -0.48249,0.33677 -0.41952,0.5158 0.0214,0.0609 -0.003,0.34663 -0.0535,0.635 -0.0509,0.28838 -0.11269,0.69577 -0.13738,0.90532 -0.0247,0.20955 -0.0659,0.5334 -0.0915,0.71966 l -0.0466,0.33867 0.17579,-0.27801 c 0.0967,-0.1529 0.2325,-0.29977 0.30182,-0.32637 z m 9.01649,-0.0412 c -0.0507,-0.29685 -0.12939,-0.78738 -0.17475,-1.09006 -0.0454,-0.30269 -0.1043,-0.62032 -0.13098,-0.70586 -0.0471,-0.15093 -0.0516,-0.15093 -0.15357,0 -0.0578,0.0855 -0.19205,0.31303 -0.29837,0.50554 l -0.1933,0.35002 0.49483,0.76683 c 0.27217,0.42176 0.5069,0.75477 0.52163,0.74004 0.0147,-0.0147 -0.0147,-0.26966 -0.0655,-0.56651 z m -4.91095,-1.5769 -8e-4,-1.41816 -0.24877,0.43374 c -0.13683,0.23855 -0.31047,0.45741 -0.38587,0.48635 -0.0934,0.0359 -0.0274,-0.14608 0.20723,-0.57117 0.18939,-0.34307 0.34434,-0.64246 0.34434,-0.6653 0,-0.0228 -0.24689,0.0175 -0.54863,0.0897 -0.52792,0.12631 -0.75571,0.10011 -0.58797,-0.0676 0.0439,-0.0439 0.32708,-0.14263 0.62935,-0.21944 0.30227,-0.0768 0.56365,-0.15278 0.58085,-0.1688 0.0396,-0.0369 -0.6908,-1.04736 -0.7594,-1.05069 -0.0393,-0.002 -0.97234,1.32364 -1.07097,1.52153 -0.0116,0.0233 0.0739,0.0478 0.18994,0.0545 0.11607,0.007 0.18999,-0.0219 0.16427,-0.0635 -0.0257,-0.0416 -0.003,-0.0757 0.0499,-0.0757 0.0532,0 0.0799,0.0476 0.0594,0.10584 -0.0205,0.0582 -0.0999,0.10054 -0.17639,0.0941 -0.0765,-0.006 -0.13905,0.0221 -0.13905,0.0635 0,0.13701 -0.16188,0.0781 -0.25296,-0.0921 -0.0698,-0.13039 -0.0564,-0.20214 0.0605,-0.32456 0.0826,-0.0864 0.16227,-0.20952 0.17713,-0.27352 0.0149,-0.064 0.40539,-0.69513 0.86784,-1.40249 0.46241,-0.70738 0.84077,-1.34185 0.84077,-1.40994 0,-0.0681 -0.10105,-0.27199 -0.22455,-0.45312 -0.12351,-0.18112 -0.44852,-0.66116 -0.72225,-1.06675 -0.27374,-0.40559 -0.52776,-0.75601 -0.56449,-0.77871 -0.0727,-0.0449 -2.04471,3.11044 -2.04471,3.27174 0,0.084 0.66877,1.16929 1.20078,1.94857 0.0874,0.12806 0.11747,0.23284 0.0668,0.23284 -0.0507,0 -0.0683,0.0387 -0.039,0.086 0.0292,0.0473 0.0846,0.0666 0.1231,0.0428 0.0384,-0.0238 0.30883,0.30898 0.60084,0.73945 0.29201,0.43046 0.54678,0.80165 0.56616,0.82486 0.0194,0.0232 0.0889,-0.0312 0.15443,-0.12082 0.0656,-0.0897 0.14707,-0.13516 0.18113,-0.1011 0.034,0.0341 0.0221,0.0884 -0.0265,0.12082 -0.1751,0.11667 -0.20932,0.37729 -0.0698,0.53147 0.0763,0.0842 0.109,0.19761 0.0736,0.25484 -0.0419,0.0678 -0.0283,0.0812 0.0397,0.0392 0.0642,-0.0397 0.0945,-0.0205 0.08,0.0504 -0.0327,0.15936 0.17346,0.51025 0.2661,0.453 0.0419,-0.0259 0.11752,0.0302 0.16806,0.12463 0.0505,0.0944 0.1096,0.1717 0.13125,0.1717 0.0216,0 0.039,-0.63818 0.0386,-1.41817 z m -0.49871,0.88515 c -0.1071,-0.17833 -0.10529,-0.18014 0.0405,-0.0405 0.0839,0.0804 0.13436,0.16438 0.11209,0.18665 -0.0223,0.0223 -0.0909,-0.0435 -0.15259,-0.14615 z m 1.50443,-0.26672 c 0.14579,-0.23031 0.26507,-0.459 0.26507,-0.5082 0,-0.0492 -0.1905,-0.41312 -0.42333,-0.80873 l -0.42334,-0.71927 v 1.42939 c 0,1.60947 -0.032,1.5761 0.5816,0.60681 z m -5.49226,0.24941 c 0,-0.0699 -0.0381,-0.127 -0.0847,-0.127 -0.0466,0 -0.0847,0.0572 -0.0847,0.127 0,0.0699 0.0381,0.127 0.0847,0.127 0.0466,0 0.0847,-0.0571 0.0847,-0.127 z m 0.0578,-0.65088 c -0.027,-0.0675 -0.0471,-0.0475 -0.0512,0.0512 -0.004,0.0893 0.0163,0.13926 0.0445,0.11113 0.0281,-0.0281 0.0311,-0.10116 0.007,-0.16228 z m 8.62301,-0.37524 c 0.24082,-0.43062 0.2879,-0.57622 0.20323,-0.62855 -0.13133,-0.0812 -1.52784,-0.43812 -1.56575,-0.40022 -0.0311,0.0311 0.96315,1.58922 1.01418,1.58922 0.0192,0 0.17596,-0.2522 0.34834,-0.56045 z m -2.45127,-0.35124 c 0.14332,-0.22035 0.32541,-0.50044 0.40465,-0.6224 l 0.14408,-0.22177 -0.88891,-0.22273 c -0.4889,-0.12251 -0.90668,-0.22274 -0.92839,-0.22274 -0.0217,0 0.17714,0.3806 0.44192,0.84579 0.26478,0.46519 0.50046,0.8455 0.52374,0.84515 0.0233,-2.7e-4 0.15959,-0.18094 0.30291,-0.4013 z m -4.72674,-0.82379 c 0.38417,-0.0852 0.69729,-0.17723 0.69581,-0.20454 -0.002,-0.0273 -0.0574,-0.12193 -0.12429,-0.21029 -0.0669,-0.0883 -0.0979,-0.19901 -0.0689,-0.24591 0.0323,-0.0523 0.009,-0.0585 -0.0594,-0.016 -0.0821,0.0507 -0.0972,0.0304 -0.0564,-0.076 0.0376,-0.0979 0.0238,-0.12553 -0.0423,-0.0847 -0.0678,0.0419 -0.0792,0.0114 -0.0369,-0.0989 0.0337,-0.0877 0.0337,-0.13198 8e-5,-0.0984 -0.0336,0.0336 -0.12847,1.7e-4 -0.2108,-0.0744 -0.17497,-0.15835 -0.30945,-0.0985 -0.4175,0.18566 -0.0426,0.1119 -0.11371,0.20345 -0.15815,0.20345 -0.0444,0 0.0105,-0.16329 0.12201,-0.36288 l 0.20281,-0.36287 -0.24242,-0.36618 c -0.2658,-0.40148 -0.27927,-0.39078 -0.38797,0.30831 -0.0307,0.19767 -0.0871,0.37868 -0.12524,0.40226 -0.0381,0.0236 -0.0515,0.12854 -0.0297,0.23327 0.0379,0.18203 0.0336,0.1811 -0.0985,-0.0212 -0.10168,-0.15578 -0.12387,-0.16695 -0.084,-0.0423 0.0298,0.0931 0.0753,0.27411 0.1011,0.40217 0.0569,0.28205 0.0826,0.28594 0.28013,0.0423 0.26128,-0.32226 0.25771,-0.12463 -0.005,0.29807 -0.28923,0.46468 -0.30195,0.5174 -0.10076,0.41745 0.0815,-0.0405 0.46249,-0.14331 0.84667,-0.2285 z m 6.92767,-0.51718 c -0.26732,-0.40169 -0.51583,-0.69734 -0.55226,-0.65701 -0.0364,0.0403 -0.20468,0.28236 -0.37388,0.53785 l -0.30766,0.46451 0.82548,0.21668 c 0.45402,0.11917 0.84098,0.2058 0.85992,0.1925 0.0189,-0.0133 -0.18428,-0.35284 -0.4516,-0.75453 z m -2.23426,-0.60918 -0.50173,-0.7641 -0.40179,0.54722 c -0.22099,0.30096 -0.38783,0.56029 -0.37076,0.57628 0.0494,0.0463 1.7216,0.45641 1.75019,0.42923 0.0142,-0.0135 -0.19996,-0.36838 -0.47591,-0.78863 z m 2.27049,-1.49849 c 1.7e-4,-0.0466 -0.44454,-0.81996 -0.98822,-1.71865 -0.93998,-1.55374 -0.99559,-1.6265 -1.1325,-1.48166 -0.29043,0.30723 -1.43535,2.05495 -1.43535,2.19107 0,0.0772 0.46492,0.85789 1.03315,1.73485 l 1.03314,1.59446 0.74474,-1.1177 c 0.4096,-0.61474 0.74487,-1.15581 0.74504,-1.20237 z m 0.39031,2.18016 c -0.0244,-0.0815 -0.0861,-0.41486 -0.13708,-0.74083 -0.1711,-1.09363 -0.14515,-1.05414 -0.41999,-0.63899 l -0.24083,0.36379 0.35193,0.57957 c 0.33588,0.55314 0.54103,0.75392 0.44597,0.43646 z m -8.54521,-0.12171 c -0.027,-0.0675 -0.0471,-0.0475 -0.0511,0.0512 -0.004,0.0893 0.0163,0.13926 0.0445,0.11112 0.0281,-0.0281 0.0311,-0.10116 0.007,-0.16228 z m 4.1755,-1.60591 v -0.94446 l -0.33763,0.52237 -0.33762,0.52238 0.30323,0.42208 c 0.16678,0.23215 0.31871,0.42209 0.33763,0.42209 0.0189,0 0.0344,-0.42501 0.0344,-0.94446 z m 0.79677,0.5204 0.30466,-0.42407 -0.3087,-0.46493 c -0.16979,-0.25572 -0.32236,-0.46494 -0.33905,-0.46494 -0.0167,0 -0.0303,0.40005 -0.0303,0.889 0,0.48895 0.0155,0.889 0.0344,0.889 0.0189,0 0.17149,-0.19083 0.33905,-0.42406 z m -3.82447,-2.44029 0.29408,-0.49369 -0.19181,-0.37415 c -0.22044,-0.42999 -0.21535,-0.43896 -0.37347,0.65807 -0.12819,0.88934 -0.13191,0.88646 0.2712,0.20977 z m 6.74633,-0.18976 c -0.14683,-0.94635 -0.17744,-0.99409 -0.3922,-0.6117 l -0.18055,0.32147 0.30292,0.48776 c 0.1666,0.26826 0.31718,0.47348 0.33462,0.45605 0.0174,-0.0174 -0.0117,-0.31155 -0.0648,-0.65358 z m -3.73567,-1.34601 -0.0253,-0.51208 -0.29303,0.54435 -0.29302,0.54435 0.29302,0.43048 0.29303,0.43048 0.0253,-0.46275 c 0.0139,-0.25451 0.0139,-0.69318 0,-0.97483 z m 1.03048,0.55405 c -0.001,-0.05 -0.13429,-0.31953 -0.29528,-0.59893 l -0.29271,-0.508 -0.001,1.01573 -10e-4,1.01573 0.29633,-0.4168 c 0.16298,-0.22924 0.29518,-0.45772 0.29377,-0.50773 z m 2.23899,-0.1016 c 0.1204,-0.21541 0.2189,-0.41706 0.2189,-0.44811 0,-0.031 -0.18097,-0.10667 -0.40216,-0.16807 -0.2212,-0.0614 -0.47527,-0.13257 -0.56462,-0.15817 -0.13177,-0.0377 -0.15098,-0.016 -0.10172,0.11524 0.06,0.15979 0.58017,1.05078 0.61349,1.05078 0.009,0 0.11571,-0.17625 0.23611,-0.39167 z m -5.47267,-0.24333 c 0.19297,-0.30269 0.33162,-0.55034 0.30811,-0.55034 -0.19757,0 -1.13587,0.29189 -1.13587,0.35336 0,0.10521 0.36804,0.74583 0.42896,0.74666 0.0264,2.6e-4 0.20583,-0.247 0.3988,-0.54968 z m 1.82142,-0.45463 c 0.17279,-0.3199 0.31415,-0.60126 0.31415,-0.62527 0,-0.0373 -1.17537,0.2681 -1.25642,0.32648 -0.0396,0.0285 0.52263,0.88042 0.58108,0.88042 0.0259,0 0.18841,-0.26174 0.36119,-0.58163 z m 1.90766,0.14867 c 0.15465,-0.23645 0.26895,-0.43852 0.254,-0.44905 -0.10914,-0.0768 -1.25484,-0.35508 -1.25484,-0.30475 0,0.0976 0.61758,1.18697 0.67192,1.18523 0.0262,-7.9e-4 0.17428,-0.19498 0.32892,-0.43143 z m -3.83985,-0.41904 0.5655,-0.17466 -0.14725,-0.22751 c -0.41645,-0.64341 -0.37714,-0.64147 -0.73096,-0.036 -0.17579,0.30082 -0.31961,0.56176 -0.31961,0.57988 0,0.0511 0.0298,0.0444 0.63232,-0.14172 z m 5.71768,0.1384 c 0,-0.081 -0.61648,-1.0644 -0.66725,-1.0644 -0.0692,0 -0.44797,0.60782 -0.44508,0.71426 0.003,0.11465 1.11233,0.46381 1.11233,0.35014 z m -4.15798,-1.78023 c 0.42422,-0.69639 0.77131,-1.31512 0.77131,-1.37497 0,-0.1361 -1.03714,-2.2272 -1.10464,-2.2272 -0.0989,0 -1.5205,3.01163 -1.51868,3.21733 0.002,0.1827 0.98937,1.75087 1.05655,1.6774 0.0133,-0.0145 0.37123,-0.59617 0.79546,-1.29256 z m 0.18659,1.13094 0.58458,-0.17756 -0.1481,-0.25146 c -0.0814,-0.1383 -0.21163,-0.30912 -0.2893,-0.37959 -0.14216,-0.12902 -0.23366,-0.0256 -0.77877,0.88033 -0.084,0.13962 -0.0524,0.13603 0.63159,-0.0717 z m 1.96715,-0.33222 c -0.16701,-0.28037 -0.33349,-0.5282 -0.36995,-0.55073 -0.0787,-0.0486 -0.62989,0.62464 -0.56474,0.6898 0.053,0.053 0.98826,0.35181 1.13615,0.36298 0.0562,0.004 -0.0344,-0.22167 -0.20146,-0.50205 z m 1.14832,-0.24544 c 0.28449,-0.41536 0.51725,-0.83065 0.51725,-0.92286 0,-0.17986 -1.43439,-3.23259 -1.5189,-3.23259 -0.0722,0 -1.10577,2.09378 -1.10577,2.2401 0,0.0669 0.22071,0.47612 0.49046,0.9093 0.26974,0.43318 0.6207,1.00667 0.77988,1.27443 0.1592,0.26776 0.29628,0.48683 0.30463,0.48683 0.008,0 0.24796,-0.33984 0.53245,-0.75521 z m -4.98651,-0.0964 c 7.9e-4,-0.0882 -0.23946,-0.37603 -0.27838,-0.33355 -0.0213,0.0232 -0.0635,0.2708 -0.0939,0.5502 l -0.0553,0.508 0.21357,-0.33866 c 0.11747,-0.18627 0.21377,-0.35996 0.21402,-0.38599 z m 5.70783,0.23782 c -0.0662,-0.52744 -0.15357,-0.65472 -0.28323,-0.41246 -0.0758,0.14166 -0.06,0.24541 0.0786,0.51709 0.0954,0.18693 0.19297,0.33987 0.21691,0.33987 0.0239,0 0.0185,-0.20003 -0.0122,-0.4445 z m -3.26826,-1.08899 -0.0261,-0.35264 -0.19839,0.35481 -0.1984,0.3548 0.1984,0.29115 0.19839,0.29114 0.0261,-0.29331 c 0.0144,-0.16132 0.0144,-0.452 0,-0.64595 z m 0.69245,0.64623 0.18207,-0.29461 -0.21669,-0.36156 -0.2167,-0.36157 -8e-4,0.65617 c -5.3e-4,0.36089 0.0151,0.65616 0.0346,0.65616 0.0195,0 0.11736,-0.13257 0.2175,-0.29459 z m -2.75609,-2.93332 c -0.16057,-0.31051 -0.18261,-0.29758 -0.2371,0.13911 -0.0232,0.18545 -0.0665,0.50863 -0.0963,0.71818 l -0.0542,0.381 0.26076,-0.48959 c 0.25093,-0.47111 0.25571,-0.49938 0.12678,-0.7487 z m 4.85958,0.48948 c -0.0554,-0.3565 -0.12593,-0.64819 -0.15667,-0.64819 -0.0307,0 -0.0992,0.095 -0.15207,0.21107 -0.0811,0.17809 -0.0602,0.28292 0.13396,0.6709 0.12657,0.25291 0.24035,0.44961 0.25284,0.43712 0.0125,-0.0125 -0.0226,-0.3144 -0.0781,-0.6709 z m -2.78643,-0.75402 -0.007,-0.78317 -0.19822,0.41384 -0.19822,0.41384 0.17944,0.36933 c 0.0987,0.20313 0.19089,0.36933 0.20489,0.36933 0.014,0 0.0225,-0.35243 0.0188,-0.78317 z m 0.78217,0.1905 c 0.0248,-0.0699 -0.042,-0.3175 -0.14836,-0.55033 l -0.1934,-0.42334 -0.005,0.80434 -0.005,0.80433 0.15323,-0.254 c 0.0843,-0.1397 0.17351,-0.31115 0.19829,-0.381 z m 1.6726,-0.23981 0.16554,-0.32448 -0.38572,-0.18739 c -0.21214,-0.10307 -0.39622,-0.17613 -0.40904,-0.16236 -0.0242,0.026 0.40779,0.99871 0.44351,0.99871 0.0111,0 0.0947,-0.14602 0.18571,-0.32448 z m -4.02902,-0.23392 c 0.12779,-0.26056 0.2024,-0.46039 0.1658,-0.44408 -0.0366,0.0163 -0.20941,0.0847 -0.38404,0.15207 -0.17462,0.0673 -0.3175,0.17013 -0.3175,0.22843 0,0.14322 0.18333,0.53731 0.24996,0.53731 0.0294,0 0.15799,-0.21318 0.28578,-0.47373 z m 1.32454,-0.43619 c 0.11024,-0.24434 0.17809,-0.4666 0.15078,-0.49391 -0.0273,-0.0273 -0.22535,0.0281 -0.4401,0.12306 l -0.39044,0.17272 0.19291,0.37776 c 0.1061,0.20777 0.21394,0.35231 0.23966,0.32119 0.0257,-0.0311 0.13694,-0.25648 0.24719,-0.50082 z m 1.4162,0.14234 0.18613,-0.34284 -0.38984,-0.16711 c -0.21442,-0.0919 -0.41613,-0.15639 -0.44826,-0.14329 -0.0618,0.0252 0.3511,0.99655 0.42349,0.99626 0.0233,-9e-5 0.1261,-0.15445 0.22848,-0.34302 z m -2.52503,-0.46364 c 0.0222,-0.0223 -0.0163,-0.16035 -0.0857,-0.30686 l -0.12615,-0.26639 -0.22747,0.38815 c -0.12511,0.21347 -0.22747,0.41044 -0.22747,0.4377 0,0.0489 0.58812,-0.17395 0.66678,-0.2526 z m 3.82055,0.24383 c 0,-0.077 -0.4216,-0.79061 -0.46706,-0.79061 -0.0201,0 -0.0951,0.11318 -0.16665,0.25152 -0.12964,0.2507 -0.12903,0.25207 0.18832,0.41959 0.34169,0.18037 0.44539,0.20819 0.44539,0.1195 z m -2.84335,-0.61827 c 0.21341,-0.0915 0.38802,-0.19075 0.38802,-0.22061 0,-0.0299 -0.0942,-0.16629 -0.20943,-0.30318 l -0.20943,-0.24889 -0.18559,0.406 c -0.10208,0.22331 -0.20059,0.43458 -0.2189,0.46951 -0.0493,0.0939 0.008,0.0804 0.43533,-0.10283 z m 1.42766,-0.29961 -0.22851,-0.46594 -0.19085,0.23311 c -0.10497,0.1282 -0.19223,0.26023 -0.1939,0.2934 -0.003,0.0555 0.63578,0.38188 0.7792,0.39823 0.0344,0.004 -0.0403,-0.20253 -0.16594,-0.4588 z m -1.60641,-0.60666 c 0.26499,-0.54336 0.46616,-1.00356 0.44706,-1.02266 -0.0359,-0.0359 -1.65829,0.65769 -1.65829,0.70895 0,0.0815 0.63706,1.30164 0.67962,1.30164 0.0274,0 0.26663,-0.44457 0.53161,-0.98793 z m 2.45741,0.34303 c 0.17551,-0.3547 0.30769,-0.65564 0.29373,-0.66877 -0.0813,-0.0764 -1.61113,-0.72712 -1.64051,-0.69774 -0.0451,0.0451 0.91078,2.01141 0.97785,2.01141 0.0274,0 0.19342,-0.2902 0.36893,-0.6449 z m 0.5086,0.36973 c -0.0285,-0.15134 -0.0822,-0.33231 -0.11919,-0.40216 -0.0584,-0.1101 -0.0745,-0.1083 -0.12148,0.0135 -0.0482,0.12517 0.15826,0.66381 0.25449,0.66381 0.0209,0 0.0147,-0.12383 -0.0138,-0.27517 z m -4.14417,-0.35344 c -0.0847,-0.22072 -0.20262,-0.0585 -0.19901,0.27378 l 0.003,0.3125 0.12321,-0.22693 c 0.0678,-0.12481 0.10036,-0.28652 0.0724,-0.35935 z m 1.73952,-0.53556 -0.005,-0.48683 -0.13645,0.27412 c -0.11679,0.23463 -0.12005,0.30477 -0.0226,0.48684 0.0626,0.11699 0.12645,0.21271 0.14186,0.21271 0.0154,0 0.0256,-0.21908 0.0226,-0.48684 z m 0.67705,0.0635 c -1.7e-4,-0.0699 -0.0548,-0.22225 -0.12131,-0.33866 -0.1152,-0.20154 -0.12114,-0.18759 -0.124,0.29135 -0.003,0.46016 0.008,0.48901 0.12131,0.33866 0.0684,-0.0904 0.12417,-0.2215 0.124,-0.29135 z m -1.48357,-0.94127 c 0.28358,-0.13416 0.56097,-0.24396 0.61643,-0.24399 0.22921,-1.7e-4 0.18866,-0.20676 -0.1581,-0.80537 -0.20133,-0.34758 -0.3905,-0.63242 -0.42037,-0.63299 -0.0299,-5.3e-4 -0.11221,0.14183 -0.18299,0.31646 -0.0708,0.17462 -0.265,0.63426 -0.43163,1.02142 -0.3462,0.80437 -0.36798,0.79136 0.57666,0.34447 z m 2.47764,-0.66739 c -0.23885,-0.5588 -0.45558,-1.016 -0.48163,-1.016 -0.0515,0 -0.70253,1.08342 -0.7436,1.23747 -0.0206,0.0772 1.41599,0.78714 1.60435,0.79286 0.0303,7.9e-4 -0.14027,-0.45553 -0.37912,-1.01433 z m -2.94053,-0.5812 0.34869,-0.79288 -0.27777,-0.4333 -0.27777,-0.4333 -0.0526,0.54884 c -0.1252,1.3067 -0.17111,1.98528 -0.13163,1.94584 0.0233,-0.0233 0.19928,-0.39913 0.39106,-0.8352 z m 3.29277,-0.37765 c -0.0535,-0.6368 -0.11987,-1.15662 -0.14746,-1.15514 -0.0276,0.002 -0.15521,0.17573 -0.28362,0.38725 l -0.23347,0.38456 0.35201,0.79949 c 0.19361,0.43972 0.36502,0.78648 0.38092,0.77058 0.0159,-0.0159 -0.0149,-0.54994 -0.0684,-1.18674 z m -2.02439,-0.54399 -0.006,-1.24883 -0.33134,0.70569 -0.33134,0.7057 0.31662,0.54152 c 0.17413,0.29783 0.32613,0.54224 0.33778,0.54314 0.0116,7.9e-4 0.0182,-0.56036 0.0147,-1.24722 z m 0.77455,-0.54193 -0.33189,-0.7069 -0.006,1.27 -0.006,1.27 0.33787,-0.5631 0.33786,-0.56311 z m -1.20574,-0.42938 c 0.18895,-0.42945 0.33247,-0.7919 0.31893,-0.80544 -0.0395,-0.0395 -1.32063,0.56056 -1.32063,0.61855 0,0.0289 0.068,0.1537 0.15122,0.2773 0.0832,0.12361 0.2039,0.32951 0.2683,0.45757 0.0644,0.12806 0.14444,0.23283 0.17786,0.23283 0.0334,0 0.21536,-0.35136 0.40432,-0.78081 z m 2.02652,0.32308 c 0.15058,-0.25175 0.27378,-0.47918 0.27378,-0.50539 0,-0.0262 -0.3048,-0.1934 -0.67734,-0.37152 -0.37253,-0.17812 -0.67733,-0.29886 -0.67733,-0.26831 0,0.0305 0.11817,0.31615 0.2626,0.63468 0.14443,0.31854 0.29589,0.66671 0.33657,0.77372 0.0407,0.107 0.10411,0.19455 0.14095,0.19455 0.0368,0 0.19019,-0.20597 0.34077,-0.45773 z m -2.24294,-1.20319 c 0.33644,-0.16844 0.62369,-0.31694 0.63832,-0.32999 0.0146,-0.013 -0.11164,-0.29824 -0.2806,-0.63375 -0.16896,-0.33551 -0.32044,-0.59659 -0.3366,-0.58018 -0.037,0.0375 -0.72174,1.75437 -0.72174,1.80955 0,0.0747 0.0855,0.0423 0.70062,-0.26563 z m 2.21254,-0.37778 c -0.15867,-0.37622 -0.2897,-0.72864 -0.29118,-0.78317 -0.002,-0.0545 -0.0562,-0.16972 -0.12155,-0.25601 -0.1096,-0.14468 -0.14276,-0.10941 -0.42607,0.45318 -0.16897,0.33553 -0.29313,0.62415 -0.27592,0.64137 0.0482,0.0482 1.2845,0.62218 1.34755,0.62563 0.0306,0.002 -0.0742,-0.30478 -0.23283,-0.681 z m -2.58495,-0.78107 0.26303,-0.66077 -0.20051,-0.39454 -0.20051,-0.39453 -0.0493,0.42031 c -0.0909,0.77482 -0.15832,1.7754 -0.11683,1.73264 0.0226,-0.0233 0.15943,-0.33968 0.3041,-0.70311 z m 2.75539,0.009 c -0.0519,-0.50667 -0.0742,-0.55314 -0.30707,-0.64105 -0.19225,-0.0726 -0.24169,-0.0711 -0.21094,0.006 0.36215,0.91266 0.50951,1.24536 0.53866,1.21621 0.0194,-0.0194 0.0101,-0.28115 -0.0206,-0.5816 z m -1.83078,-1.18078 c -0.17548,-0.11132 -0.21489,-0.0876 -0.31048,0.18657 -0.0776,0.22262 -0.058,0.31664 0.13989,0.67208 l 0.23011,0.41326 0.0252,-0.60113 c 0.0177,-0.42325 -0.007,-0.62174 -0.0847,-0.67078 z m 0.86713,0.75661 c 0.0913,-0.17277 0.16605,-0.33097 0.16605,-0.35155 0,-0.0273 -0.47223,-0.22205 -0.5418,-0.2235 -0.005,-8e-5 0.005,0.25363 0.0204,0.56384 0.0307,0.59683 0.0455,0.59729 0.35529,0.0112 z m 3.46805,-0.10068 c 0,-0.0497 -2.20858,-1.25831 -2.23578,-1.22347 -0.0127,0.0163 -8e-4,0.23916 0.0268,0.49528 l 0.0499,0.46567 0.889,0.13849 c 0.94378,0.14703 1.27,0.17889 1.27,0.12403 z m -0.97366,-1.57226 -1.35467,-1.35117 -0.027,0.35488 c -0.0589,0.77528 -0.004,0.85883 0.89809,1.36087 0.45222,0.25173 1.03176,0.57522 1.28788,0.71887 0.25612,0.14364 0.48472,0.26265 0.508,0.26445 0.0233,0.002 -0.56727,-0.60475 -1.31233,-1.3479 z m -1.654,0.90757 -0.003,-0.27517 -0.11684,0.2111 c -0.0874,0.15791 -0.092,0.22691 -0.0182,0.27387 0.14208,0.0904 0.14129,0.0916 0.13801,-0.2098 z m -2.22152,-0.1625 c -0.13537,-0.0837 -0.17835,-0.0224 -0.10972,0.15647 0.0482,0.12559 0.0694,0.12991 0.13299,0.0271 0.0481,-0.0778 0.0396,-0.14467 -0.0233,-0.18353 z m 1.92676,-0.15219 c 0.1172,-0.23128 0.21309,-0.44028 0.21309,-0.46444 0,-0.0429 -0.97081,-0.55437 -1.05214,-0.55437 -0.0225,0 0.0661,0.25717 0.19707,0.5715 0.13092,0.31432 0.26138,0.63817 0.2899,0.71967 0.0772,0.22047 0.11858,0.18844 0.35208,-0.27236 z m -0.63658,0.14536 c -0.002,-0.0582 -0.0574,-0.20109 -0.124,-0.3175 l -0.121,-0.21167 -0.003,0.26106 c -0.002,0.14358 0.0224,0.28645 0.0534,0.3175 0.0916,0.0916 0.19779,0.0647 0.19455,-0.0494 z m -0.68028,-0.381 c -0.005,-0.20632 -0.0142,-0.21356 -0.0787,-0.0635 -0.0994,0.23125 -0.0994,0.29633 0,0.29633 0.0466,0 0.082,-0.10478 0.0787,-0.23283 z m -0.18747,-0.35984 c 0.0984,-0.23283 0.162,-0.42333 0.14139,-0.42333 -0.11457,0 -1.04864,0.52271 -1.04864,0.58683 0,0.0815 0.37868,0.24204 0.59703,0.25315 0.0803,0.004 0.20092,-0.15795 0.31022,-0.41665 z m -1.29102,-0.66599 c -0.0229,-0.0229 -0.20312,-0.0544 -0.40045,-0.07 -0.19733,-0.0156 -0.77316,-0.0674 -1.27963,-0.11526 -0.50647,-0.0478 -0.93637,-0.0714 -0.95533,-0.0524 -0.019,0.019 0.54782,0.24386 1.25952,0.49976 l 1.294,0.46528 0.0618,-0.34283 c 0.034,-0.18855 0.043,-0.36158 0.0201,-0.3845 z m 0.80711,0.24266 0.29633,-0.16224 -0.27219,-0.004 c -0.18794,-0.002 -0.30024,0.0489 -0.36281,0.16578 -0.11163,0.20858 -0.0423,0.20858 0.33867,0 z m 1.80753,-0.77108 c -0.17225,-0.43739 -0.31603,-0.80005 -0.31952,-0.8059 -0.003,-0.006 -0.0921,-0.037 -0.19685,-0.0692 -0.18645,-0.0573 -0.1905,-0.0443 -0.1905,0.61232 v 0.67087 l 0.48444,0.21917 c 0.26644,0.12055 0.49595,0.20766 0.51003,0.19359 0.0141,-0.0141 -0.11535,-0.38345 -0.2876,-0.82084 z m -1.17285,-0.99312 c -0.11108,-0.11108 -0.32326,0.14206 -0.51585,0.61544 -0.11193,0.27511 -0.2035,0.52963 -0.2035,0.56561 0,0.036 0.16192,0.0771 0.35983,0.0915 l 0.35984,0.026 0.0249,-0.62419 c 0.0137,-0.34331 0.002,-0.64676 -0.0252,-0.67434 z m -0.6704,0.17626 c -0.0229,-0.0229 -0.10044,-0.0191 -0.1723,0.008 -0.0935,0.0359 -0.12934,0.16511 -0.12603,0.45496 l 0.005,0.40482 0.16768,-0.41331 c 0.0922,-0.22732 0.14894,-0.43205 0.12604,-0.45496 z m 2.07575,0.2921 c -0.14878,-0.14877 -0.18087,-0.0227 -0.0701,0.27522 l 0.10436,0.28056 0.0278,-0.23295 c 0.0153,-0.12813 -0.0126,-0.2734 -0.0621,-0.32283 z m -0.008,-0.64091 c 0,-0.75389 -0.0677,-0.91673 -0.44341,-1.06707 -0.18685,-0.0748 -0.35873,-0.11693 -0.38196,-0.0937 -0.0232,0.0232 0.0606,0.30105 0.18624,0.61738 0.41307,1.03989 0.63913,1.2321 0.63913,0.5434 z m -1.66951,-0.50706 c 0.13151,-0.3429 0.21969,-0.64291 0.19593,-0.66666 -0.0238,-0.0238 -0.18717,0.0142 -0.36315,0.0844 -0.34915,0.13925 -0.42706,0.29727 -0.44083,0.8941 -0.008,0.33188 0.009,0.36321 0.18024,0.33866 0.14827,-0.0212 0.2399,-0.16059 0.42781,-0.65053 z m 0.87062,0.23609 -0.12582,-0.28995 -0.003,0.31045 c -0.002,0.17499 0.0429,0.32645 0.10252,0.34713 0.15879,0.055 0.16611,-0.0461 0.0266,-0.36763 z m -0.56246,-0.0148 c -0.004,-0.15134 -0.0279,-0.21802 -0.0538,-0.14817 -0.0259,0.0698 -0.0814,0.19368 -0.1233,0.27517 -0.0565,0.10986 -0.0426,0.14817 0.0538,0.14817 0.0916,0 0.128,-0.0813 0.12329,-0.27517 z m 1.06463,-1.9286 c -0.083,-0.51612 -0.1775,-0.90768 -0.20991,-0.87015 -0.0686,0.0794 -0.42537,1.28913 -0.42497,1.44088 2.5e-4,0.0966 0.68204,0.45457 0.75289,0.39526 0.0181,-0.0152 -0.035,-0.44987 -0.11801,-0.96599 z m -1.39833,0.79758 c 0.18721,-0.0749 0.33903,-0.17969 0.33737,-0.23284 -0.0107,-0.34184 -0.39113,-1.55105 -0.46483,-1.47735 -0.0765,0.0765 -0.34336,1.84638 -0.27844,1.84638 0.036,0 0.2187,-0.0613 0.4059,-0.13619 z m -0.42162,-0.79515 c 0,-0.0466 -0.0404,-0.0847 -0.0897,-0.0847 -0.0493,0 -0.0661,0.0381 -0.0373,0.0847 0.0288,0.0466 0.0691,0.0847 0.0897,0.0847 0.0205,0 0.0373,-0.0381 0.0373,-0.0847 z m 0.84789,-1.016 c 0.0424,0 0.0413,-0.1005 -0.003,-0.23283 -0.0425,-0.12806 -0.071,-0.34713 -0.0634,-0.48683 0.008,-0.1397 0.002,-0.57785 -0.0125,-0.97367 l -0.0264,-0.71967 -0.15473,0.762 c -0.17144,0.84432 -0.20392,1.36287 -0.0898,1.43341 0.0413,0.0255 0.10598,0.18969 0.14376,0.36483 0.0639,0.29599 0.0709,0.30202 0.0999,0.0856 0.0172,-0.12806 0.0648,-0.23284 0.10584,-0.23284 z m 0.54709,-1.48193 c -0.0839,-0.4892 -0.16542,-0.87652 -0.18125,-0.86069 -0.0158,0.0158 -0.0323,0.55892 -0.0367,1.20687 -0.005,0.75033 -0.0414,1.1988 -0.1002,1.23513 -0.0639,0.0395 -0.0559,0.10085 0.0262,0.19979 0.10607,0.12781 0.13551,0.0886 0.28144,-0.37444 0.15905,-0.50473 0.1593,-0.5386 0.0105,-1.40666 z m -1.33714,1.46606 c -0.027,-0.0675 -0.0471,-0.0475 -0.0511,0.0512 -0.004,0.0893 0.0163,0.13926 0.0445,0.11113 0.0281,-0.0281 0.0311,-0.10116 0.007,-0.16228 z m 1.6355,-0.32279 c 0,-0.0466 -0.0168,-0.0847 -0.0373,-0.0847 -0.0205,0 -0.0609,0.0381 -0.0897,0.0847 -0.0288,0.0466 -0.012,0.0847 0.0373,0.0847 0.0493,0 0.0897,-0.0381 0.0897,-0.0847 z"
       style="fill:#000000;stroke-width:0.0846667"
       id="path399" />
  </g>
</svg>
